<?xml version="1.0" standalone="no"?>
<!DOCTYPE svg PUBLIC "-//W3C//DTD SVG 20010904//EN"
 "http://www.w3.org/TR/2001/REC-SVG-20010904/DTD/svg10.dtd">
<svg version="1.0" xmlns="http://www.w3.org/2000/svg"
 width="200.000000pt" height="200.000000pt" viewBox="0 0 200.000000 200.000000"
 preserveAspectRatio="xMidYMid meet">

<g transform="translate(0.000000,200.000000) scale(0.100000,-0.100000)"
fill="#000000" stroke="none">
<path d="M826 1594 c-25 -24 -20 -69 9 -92 14 -11 25 -30 25 -42 0 -12 -11
-31 -25 -42 -18 -14 -25 -29 -25 -53 0 -26 6 -39 25 -51 15 -9 25 -26 25 -39
0 -13 -10 -30 -25 -39 -19 -12 -25 -25 -25 -51 0 -26 6 -39 25 -51 15 -9 25
-26 25 -39 0 -13 -10 -30 -25 -39 -34 -22 -34 -69 0 -100 32 -30 32 -59 0 -80
-19 -12 -25 -25 -25 -51 0 -26 6 -39 25 -51 14 -9 25 -25 25 -37 0 -11 -11
-30 -25 -43 -16 -15 -25 -34 -25 -53 0 -20 8 -36 25 -49 31 -25 34 -68 5 -77
-39 -12 -39 -98 1 -110 74 -24 118 78 49 115 -28 15 -25 47 6 74 35 30 35 73
0 101 -32 26 -33 53 -2 80 40 33 42 61 7 96 -38 37 -39 61 -5 86 18 13 27 29
27 48 0 19 -9 36 -27 50 -14 11 -26 29 -26 40 0 11 12 29 26 40 18 14 27 31
27 50 0 19 -9 36 -27 50 -14 11 -26 29 -26 40 0 11 12 29 26 40 36 28 36 72 0
100 -32 26 -33 53 -2 80 35 29 40 57 15 88 -23 30 -59 35 -83 11z"/>
<path d="M687 1502 c-25 -27 -21 -67 8 -90 14 -11 25 -30 25 -42 0 -12 -11
-31 -25 -42 -16 -13 -25 -29 -25 -48 0 -28 22 -60 41 -60 5 0 9 -13 9 -29 0
-20 -8 -34 -25 -45 -17 -11 -25 -26 -25 -46 0 -19 9 -35 25 -48 14 -11 25 -30
25 -42 0 -12 -11 -31 -25 -42 -16 -13 -25 -29 -25 -48 0 -19 9 -35 25 -48 14
-11 25 -30 25 -42 0 -12 -11 -31 -25 -42 -16 -13 -25 -29 -25 -48 0 -28 22
-60 41 -60 5 0 9 -13 9 -29 0 -20 -8 -34 -25 -45 -18 -12 -25 -25 -25 -49 0
-42 15 -57 57 -57 63 0 83 78 28 114 -33 22 -32 46 5 78 17 14 30 36 30 48 0
12 -14 35 -30 50 -38 35 -38 51 0 88 17 17 30 38 30 47 0 9 -13 30 -30 45 -16
15 -30 33 -30 40 0 7 14 28 30 47 17 18 30 41 30 49 0 9 -13 28 -30 42 -38 33
-38 46 0 89 35 39 33 66 -6 96 -32 25 -30 47 7 80 26 22 30 32 25 55 -13 51
-67 69 -99 34z"/>
<path d="M960 1500 c-28 -28 -25 -58 10 -88 17 -15 30 -33 30 -40 0 -8 -13
-30 -30 -49 -16 -18 -30 -41 -30 -49 0 -9 14 -29 30 -44 17 -15 30 -33 30 -40
0 -7 -13 -28 -30 -47 -16 -18 -30 -41 -30 -49 0 -9 14 -28 30 -42 36 -32 38
-54 6 -79 -14 -10 -28 -30 -32 -45 -5 -23 -1 -33 25 -55 39 -34 39 -52 1 -85
-38 -33 -38 -62 0 -98 17 -15 30 -33 30 -40 0 -7 -14 -28 -30 -47 -34 -38 -36
-50 -14 -81 18 -26 65 -30 88 -6 9 8 16 31 16 50 0 27 -5 37 -25 46 -33 15
-33 54 0 80 33 26 33 70 0 96 -15 12 -25 30 -25 45 0 15 9 31 25 41 17 11 25
26 25 46 0 19 -9 35 -25 48 -15 12 -25 30 -25 45 0 15 9 31 25 41 17 11 25 26
25 46 0 19 -9 35 -25 48 -14 11 -25 30 -25 42 0 12 11 31 25 42 16 13 25 29
25 48 0 19 -9 35 -25 48 -14 11 -25 30 -25 42 0 12 11 31 25 42 30 23 33 67 7
91 -25 23 -58 21 -82 -3z"/>
<path d="M1096 1408 c-23 -32 -20 -64 9 -86 14 -11 25 -30 25 -42 0 -13 -11
-33 -25 -46 -28 -26 -32 -65 -9 -88 35 -35 104 -3 104 48 0 24 -23 56 -41 56
-19 0 -8 50 16 74 30 30 32 59 5 86 -27 27 -65 26 -84 -2z"/>
<path d="M1237 1322 c-20 -22 -22 -73 -5 -90 21 -21 75 -15 92 10 21 30 20 54
-4 78 -25 25 -62 26 -83 2z"/>
<path d="M1100 870 c-27 -27 -25 -64 5 -88 14 -11 25 -30 25 -42 0 -13 -11
-33 -25 -46 -60 -56 4 -144 68 -93 34 26 35 63 2 93 -14 13 -25 33 -25 44 0
12 11 32 25 46 14 14 25 34 25 46 0 26 -34 60 -60 60 -11 0 -29 -9 -40 -20z"/>
<path d="M1242 784 c-33 -23 -27 -83 10 -103 25 -14 29 -14 55 5 35 26 40 62
13 92 -25 26 -47 28 -78 6z"/>
</g>
</svg>
